<svg xmlns="http://www.w3.org/2000/svg" width="14" height="12" viewBox="0 0 14 12"><g><g><g><path fill="#c1c6ce" d="M2 8.004v4h4v-4h2v4h4v-4L7 3.52z"/></g><g><path fill="#c1c6ce" d="M13.828 6.365l-1.831-1.614V0h-2v2.987L7.329.635c-.02-.017-.043-.023-.064-.037a.465.465 0 0 0-.08-.047.55.55 0 0 0-.095-.024C7.059.521 7.029.515 6.997.515c-.031 0-.061.006-.092.012a.46.46 0 0 0-.095.025c-.028.011-.053.029-.08.046-.021.014-.045.02-.064.037L.168 6.365a.501.501 0 0 0 .66.75l6.169-5.438 6.169 5.438a.501.501 0 0 0 .662-.75z"/></g></g></g></svg>