<svg xmlns="http://www.w3.org/2000/svg" width="32" height="32" viewBox="0 0 32 32"><g><g><path fill="#ee3643" d="M0 0h32v32H0z"/></g><g><path fill="#fff" d="M15.88 6s2.645.433 4.12 1.504v4.323s-1.64.98-3.5 1.177h-2.758l-.106 1h.962l-.354 2h-.962l-.341 2.86s-.171.568.662.656c.833.087 3.397.634 3.397 1.115v.37H6s0-.698.278-.85c.277-.154 1.576-.548 1.576-.548s.513-.46.598-1.181c.085-.722.876-4.988.876-4.988s.107-.437-.513-.437H6s-1-.034-1-.997v-5s0-1 1-1.004zm12.778 2.704c.185 0 .334.293.334.743s-.15.857-.334.857h-4.037c-.199.75-.663 1.7-1.205 1.7H21v-5h2.416c.542 0 1.006.95 1.205 1.7zm-22.06 17.3C6 26.004 6 25.332 6 25.332v-3.328h11v3.35c0 .59-.641.65-.641.65zM16 7.497c0-.271-.14-.493-.313-.493H6.313c-.172 0-.313.222-.313.493v.015c0 .27.14.492.313.492h9.374c.172 0 .313-.221.313-.492z"/></g></g></svg>