<svg xmlns="http://www.w3.org/2000/svg" width="59" height="72" viewBox="0 0 59 72"><g><g><g/><g><g><path fill="#fff" d="M58.829 23.85l-6.25 21.452a2.995 2.995 0 0 1-2.884 2.143h-23.12l1.726 5.078h20.842c1.657 0 3 1.325 3 2.96 0 1.633-1.343 2.958-3 2.958H23.984l-13.5-39.733H3.06c-1.657 0-3-1.325-3-2.96 0-1.633 1.343-2.958 3-2.958h11.741l2.475 7.284h38.67c.942 0 1.83.436 2.396 1.178.566.743.747 1.705.487 2.598zm-6.867 2.142h-6.211V30.8h4.81zm-19.018 0V30.8h6.807v-4.808zm0 10.727v4.808h6.807v-4.808zm-6-5.92v-4.807h-7.657l1.634 4.808zm-2.379 10.728h2.379v-4.808h-4.013zm21.186-4.808v4.808h1.685l1.401-4.808z"/></g><g><path fill="#fff" d="M27.401 71.874c3.193 0 5.781-2.553 5.781-5.702 0-3.15-2.588-5.702-5.781-5.702-3.193 0-5.781 2.553-5.781 5.702s2.588 5.702 5.781 5.702z"/></g><g><path fill="#fff" d="M44.841 71.874c3.193 0 5.781-2.553 5.781-5.702 0-3.15-2.588-5.702-5.781-5.702-3.193 0-5.781 2.553-5.781 5.702s2.588 5.702 5.781 5.702z"/></g><g><path fill="#fff" d="M29.339 10.55l7.547 5.417c.436.313.982.439 1.514.347a1.988 1.988 0 0 0 1.304-.835 2.066 2.066 0 0 0-.48-2.855l-2.373-1.702 9.436-5.02 4.628 11.849h4.347L49.218 2.275a2.037 2.037 0 0 0-1.177-1.167 1.995 1.995 0 0 0-1.643.107L33.15 8.265l-3.022-2.17a2.004 2.004 0 0 0-2.742.385l-8.481 10.65c-.17.182-.307.392-.405.62h5.106z"/></g></g></g></g></svg>