<svg xmlns="http://www.w3.org/2000/svg" width="44" height="65" viewBox="0 0 44 65"><g><g><g><path fill="#fff" d="M37.91 30.437v10.869s.105 2.735-2.825 2.735c-3.069 0-3.125-2.735-3.125-2.735V34.89c0-.24-.336-1.909-2.319-1.909-2.625 0-2.67 1.877-2.67 1.877v19.221s.029 1.863-2.464 1.863C22 55.942 22 53.959 22 53.959V40.015s0-2.945-3.805-2.945c-4.054 0-3.967 3.125-3.967 3.125v3.728s-.121 2.945-4.688 2.945-4.628-4.509-4.628-4.509V29.937C3.168 28.975 0 26.67 0 26.67v29.332s2.988 8.997 22 8.997 22-8.695 22-8.695V26.67c-2.938 2.829-6.09 3.767-6.09 3.767z"/></g><g><path fill="#fff" d="M44 19.876v3.062C35.562 29.188 22 29 22 29s-13.562.188-22-6.063v-3.062S1.688 0 22 0s22 19.875 22 19.876zm-7.688 2.749C30.062 19.75 22 19.875 22 19.875s-8.062-.125-14.312 2.75C7.688 22.625 10.25 25 22 25s14.312-2.375 14.312-2.375zm-32-7.062S12.438 12.625 22 12.625s17.688 2.937 17.688 2.937C35.125 2.624 22 3.062 22 3.062S8.875 2.625 4.312 15.563z"/></g></g></g></svg>