<svg xmlns="http://www.w3.org/2000/svg" width="78" height="62" viewBox="0 0 78 62"><g><g><g/><g><g><path fill="#fff" d="M0 45.876C0 36.969 7.22 29.75 16.125 29.75c8.906 0 16.126 7.219 16.125 16.126 0 8.905-7.22 16.125-16.125 16.125C7.22 62.001 0 54.781 0 45.876zm10.958 5.167a7.306 7.306 0 0 0 12.474-5.167 7.307 7.307 0 1 0-12.474 5.167zm55.597-2.807a8.06 8.06 0 0 1-1.67 12.683 8.062 8.062 0 1 1 1.67-12.683zm-10.763 5.701a5.063 5.063 0 1 0 10.126.002 5.063 5.063 0 0 0-10.126-.002z"/></g><g><path fill="#fff" d="M75.441 31.313c.438 3.312 2.461 18.414 2.461 18.414s.743 3.148-2.898 3.148H73.05c-.389-6.402-5.69-11.479-12.19-11.479-6.502 0-11.802 5.077-12.192 11.479H38.503a23.429 23.429 0 0 0 1.064-7c0-12.946-10.494-23.439-23.438-23.439A23.327 23.327 0 0 0 3.05 26.422c-.045-2.959-.042-13.885 2.266-20.255 0 0 1.063-2.542 3.438-3.167s24.75-3 24.75-3 2.314.062 3.126 1.875c.812 1.813 10.562 21.875 10.562 21.875l11.812 1.378v-5.295h4V14h3v11.946l5.812.679s3.078.547 3.625 4.688zM16.13 19.833h6.958V6.167H16.13zM33.087 6.167H26.13v13.666h6.958zM49.004 36h4.016v-7h-4.016zm11.016-7h-4.016v7h4.016zm2.984 7h4.016v-7h-4.016z"/></g></g></g></g></svg>