<svg xmlns="http://www.w3.org/2000/svg" width="42" height="42" viewBox="0 0 42 42"><g><g><path fill="#212a3a" d="M20.894.484c11.23 0 20.332 9.103 20.332 20.333 0 11.23-9.103 20.332-20.332 20.332C9.664 41.15.56 32.046.56 20.817.561 9.587 9.664.484 20.894.484z"/></g><g><path fill="#fff" d="M28 10c1.65 0 3 1.35 3 3v15c0 1.65-1.35 3-3 3H13c-1.65 0-3-1.35-3-3V13c0-1.65 1.35-3 3-3zm-4 10.5c0-1.93-1.57-3.5-3.5-3.5S17 18.57 17 20.5s1.57 3.5 3.5 3.5 3.5-1.57 3.5-3.5zm4 7.5v-9h-1.181c.119.491.18.995.181 1.5a6.5 6.5 0 1 1-13 0 6.504 6.504 0 0 1 .181-1.5H13v9zm-4-11h4v-4h-4z"/></g></g></svg>