<svg xmlns="http://www.w3.org/2000/svg" width="42" height="42" viewBox="0 0 42 42"><g><g><path fill="#212a3a" d="M21.163.484c11.49 0 20.805 9.103 20.805 20.333 0 11.23-9.315 20.332-20.805 20.332S.357 32.046.357 20.817C.357 9.587 9.672.484 21.163.484z"/></g><g><path fill="#fff" d="M23.54 24.731c.92-.29 2.1 1.913 3.354 2.756.942.638 1.663.5 1.663.5l3.345-.047s1.747-.105.921-1.457c-.068-.112-.484-1.002-2.489-2.833-2.096-1.915-1.812-1.605.712-4.916 1.538-2.018 2.153-3.251 1.96-3.776-.185-.505-1.314-.374-1.314-.374l-3.768.025c-.367.001-.678.112-.82.483-.003.004-.598 1.562-1.391 2.887-1.677 2.802-2.346 2.95-2.623 2.775-.637-.405-.476-1.628-.476-2.497 0-2.716.416-3.848-.815-4.141-.411-.097-.711-.161-1.76-.17-1.34-.02-2.479 0-3.124.308-.428.209-.757.667-.557.694.25.032.811.15 1.112.549.386.517.374 1.677.374 1.677s.22 3.198-.52 3.595c-.508.271-1.203-.284-2.699-2.828-.763-1.301-1.34-2.74-1.34-2.74s-.112-.267-.314-.413a1.576 1.576 0 0 0-.578-.229l-3.576.023s-.538.015-.735.246c-.175.204-.015.626-.015.626s2.802 6.45 5.974 9.7c2.908 2.983 6.213 2.785 6.213 2.785h1.497s.452-.05.683-.292c.216-.225.206-.648.206-.648s-.03-1.977.9-2.268z"/></g></g></svg>