<svg xmlns="http://www.w3.org/2000/svg" width="108" height="18" viewBox="0 0 108 18"><g><g><g><path fill="#fff" d="M103.849 2.658V17.45h-2.113V2.658h-3.757V1.015h9.626v1.643zm-8.135 8.699a3.02 3.02 0 0 1-1.386.986c-.555.196-1.217.293-1.984.293a12 12 0 0 1-1.22-.07c-.454-.047-.83-.102-1.127-.164v5.048h-2.113V1.25A11.072 11.072 0 0 1 89.68.886c.602-.07 1.256-.106 1.96-.106.94 0 1.738.098 2.395.293.657.196 1.19.52 1.596.975.407.454.705 1.056.893 1.808.187.751.281 1.682.281 2.794 0 1.142-.09 2.097-.27 2.864-.18.767-.454 1.381-.821 1.843zm-1.198-6.82c-.117-.564-.301-1.01-.552-1.339a1.995 1.995 0 0 0-.95-.692c-.384-.133-.842-.2-1.374-.2h-1.643v8.687h1.643c.532 0 .99-.067 1.374-.2.383-.133.7-.363.95-.692.25-.329.435-.775.552-1.338.118-.564.176-1.268.176-2.113 0-.846-.058-1.55-.176-2.113zm-11.915 8.686h-4.696L76.85 17.45h-2.113l3.991-16.435h3.052L85.77 17.45h-2.113zm-2.3-9.86h-.095l-1.949 8.217h3.992zM70.156 5.24h-.117l-3.404 10.096h-2.113L61.118 5.24h-.117l-.704 12.209h-2.113l.939-16.435h2.582l3.827 11.27h.094l3.827-11.27h2.583l.939 16.435h-2.113zM54.38 15.924c-.438.641-.966 1.095-1.585 1.361-.618.266-1.326.4-2.125.4-.798 0-1.506-.134-2.124-.4-.619-.266-1.147-.72-1.585-1.362-.438-.641-.77-1.506-.998-2.594-.227-1.088-.34-2.453-.34-4.097 0-1.643.113-3.009.34-4.097.227-1.088.56-1.952.998-2.594.438-.642.967-1.096 1.585-1.362S49.872.78 50.67.78c.799 0 1.507.133 2.125.4.619.265 1.147.72 1.585 1.36.438.643.771 1.507.998 2.595.227 1.088.34 2.454.34 4.097 0 1.644-.113 3.01-.34 4.097-.227 1.088-.56 1.953-.998 2.594zM52.713 3.597c-.266-.532-.579-.9-.939-1.103a2.218 2.218 0 0 0-1.104-.305c-.375 0-.743.101-1.103.305-.36.203-.673.571-.94 1.103-.265.533-.48 1.253-.645 2.16-.164.908-.246 2.066-.246 3.475 0 1.409.082 2.567.246 3.475.165.908.38 1.628.646 2.16.266.532.579.9.939 1.103.36.204.728.306 1.103.306.376 0 .744-.102 1.104-.306.36-.203.673-.57.94-1.103.265-.532.48-1.252.645-2.16.164-.908.246-2.066.246-3.475 0-1.409-.082-2.567-.246-3.475-.165-.907-.38-1.627-.646-2.16zm-12.02 6.34h-4.931v7.513h-2.113V1.015h2.113v7.278h4.93V1.015h2.113V17.45h-2.113zM29.54 17.45l-2.935-7.044-2.935 7.044h-2.113l3.522-8.453-3.17-7.982h2.114l2.582 6.574 2.583-6.574h2.113l-3.17 7.982 3.522 8.453zM12.284 1.015h7.983v1.643h-5.87v5.4h5.166v1.644h-5.166v6.104h5.87v1.644h-7.983zM6.65 17.45H4.537V2.658H.78V1.015h9.626v1.643H6.65z"/></g></g></g></svg>