<svg xmlns="http://www.w3.org/2000/svg" width="18" height="19" viewBox="0 0 18 19"><g><g><path fill="#b7bfc8" d="M14.574 18.987h-.941c-4.129-.488-7.157-2.408-9.359-4.864C2.064 11.662.32 8.493-.02 4.23V3.086c.078-.774.459-1.304.898-1.757C1.427.768 2.252.046 3.004.02c.554-.018 1.5.38 1.879.899.329.446.504 1.339.656 2.003.154.67.505 1.643.408 2.289-.148 1.007-1.487 1.434-1.879 2.166 1.307 3.135 3.443 5.439 6.293 7.03.715-.391 1.346-1.571 2.332-1.594.359-.01.818.178 1.184.286.402.12.75.275 1.104.408.596.224 1.648.52 2.004 1.02.365.514.57 1.357.49 1.88-.164 1.04-1.879 2.197-2.901 2.579z"/></g></g></svg>